# xmcd CD database file
#
# Track frame offsets:
#	150
#	25710
#	44677
#	57990
#	77542
#	98580
#	117407
#	134740
#	156780
#	180840
#
# Disc length: 2620 seconds
#
# Revision: 14
# Processed by: cddbd v1.5.2PL0 Copyright (c) Steve Scherf et al.
# Submitted via: CDex 1.70beta2
#
DISCID=7a0a3a0a
DTITLE=許如芸 - 我依然愛你
DYEAR=1998
DGENRE=Chinese
TTITLE0=我依然愛你 Still Loving You
TTITLE1=不愛我放了我 Release Me
TTITLE2=啤酒咖啡 Beer? Coffee?
TTITLE3=我們都寂寞 We're All Alone
TTITLE4=情人的畫像 Lover's Portrait
TTITLE5=欲哭無淚 Crying Without Tears
TTITLE6=我是你的藥 I'm Your Cure
TTITLE7=月光的祈禱 Moonlight Pray
TTITLE8=失去 To Lose
TTITLE9=Ending
EXTD=YEAR: 1998
EXTT0=
EXTT1=
EXTT2=
EXTT3=
EXTT4=
EXTT5=
EXTT6=
EXTT7=
EXTT8=
EXTT9=
PLAYORDER=
